<svg width="26" height="26" viewBox="0 0 26 26" fill="none" xmlns="http://www.w3.org/2000/svg">
<circle cx="13.0002" cy="12.9999" r="11.88" fill="#25258C"/>
<path d="M13.0017 1.12006C16.7707 1.12016 20.1272 2.87753 22.3035 5.61517C19.9442 10.0105 15.3052 12.9999 9.96753 12.9999C6.77255 12.9998 3.82876 11.9274 1.47339 10.1249C2.75905 4.95316 7.43214 1.12006 13.0017 1.12006Z" fill="#3737B1"/>
<circle cx="12.9998" cy="13.0001" r="11.88" stroke="#FF4200" stroke-width="1.5" stroke-miterlimit="10" stroke-linecap="round"/>
<path d="M1.11975 13.0001C1.11975 6.43891 6.43861 1.12006 12.9998 1.12006" stroke="#00A9EA" stroke-width="1.5" stroke-miterlimit="10" stroke-linecap="round"/>
<path d="M16.3908 5.53817L9.24515 11.4169C9.11381 11.5249 9.02925 11.6795 9.00911 11.8484L8.03233 20.0381C7.96362 20.6143 8.61843 20.9924 9.08306 20.6448L15.6872 15.704C15.8234 15.6021 15.915 15.4516 15.9429 15.2838L17.4612 6.15615C17.5612 5.55457 16.8617 5.15073 16.3908 5.53817Z" stroke="white" stroke-width="1.5" stroke-miterlimit="10" stroke-linecap="round"/>
</svg>
