<svg width="25" height="26" viewBox="0 0 25 26" fill="none" xmlns="http://www.w3.org/2000/svg">
<rect x="1.92761" y="1.98016" width="22.4713" height="22.4199" rx="5.16581" fill="#25258C"/>
<path d="M17.537 1.98016C17.8328 1.98016 18.123 2.00566 18.4052 2.05341C18.365 8.87539 12.7148 14.3932 5.74988 14.3932C4.41756 14.3932 3.13368 14.1904 1.92761 13.8161V7.14618C1.92761 4.29318 4.24063 1.98016 7.09363 1.98016H17.537Z" fill="#3737B1"/>
<path d="M2.61975 19.214V20.0059C2.61975 22.4328 4.54772 24.3999 6.91777 24.3999H19.6522C22.0222 24.3999 23.9502 22.4328 23.9502 20.0059V5.99391C23.9502 3.56703 22.0222 1.59998 19.6522 1.59998H6.91777C4.54772 1.59998 2.61975 3.56703 2.61975 5.99391V6.78583" stroke="#FF4200" stroke-width="1.5" stroke-miterlimit="10" stroke-linecap="round"/>
<path d="M2.61975 19.2139V20.0059C2.61975 22.4327 4.54772 24.3998 6.91777 24.3998H13.285" stroke="#00A9EA" stroke-width="1.5" stroke-miterlimit="10" stroke-linecap="round"/>
<path d="M1.60107 14.0349L5.53069 10.253C6.16925 9.63873 7.18849 9.63873 7.82706 10.253L11.7567 14.0349" stroke="#00A9EA" stroke-width="1.5" stroke-miterlimit="10" stroke-linecap="round"/>
<path d="M20.9058 11.0964L19.0024 9.26569C18.3639 8.65143 17.3323 8.65143 16.7061 9.26569L7.6925 17.9376" stroke="white" stroke-width="1.5" stroke-miterlimit="10" stroke-linecap="round"/>
</svg>
