<svg width="26" height="26" viewBox="0 0 26 26" fill="none" xmlns="http://www.w3.org/2000/svg">
<path d="M19.6899 8.05859L23.8946 13.0783C24.2335 13.4788 24.4218 13.9994 24.4218 14.5468V22.7171C24.4218 23.9186 23.5432 24.8798 22.4638 24.8798H19.1376C18.0582 24.8798 17.1796 23.9052 17.1796 22.7171V18.3916C17.1796 17.1901 16.301 16.2289 15.2215 16.2289H10.7657" stroke="#2C2C2C" stroke-width="1.5" stroke-miterlimit="10"/>
<path d="M1.57825 17.9645V14.5603C1.57825 14.0129 1.76652 13.4922 2.10541 13.0917L11.5692 1.81087C12.3474 0.889705 13.6528 0.889705 14.431 1.81087L20.0792 8.53934" stroke="#9B9B9B" stroke-width="1.5" stroke-miterlimit="10" stroke-linecap="round"/>
<path d="M10.766 16.2291C9.68652 16.2291 8.80791 17.2036 8.80791 18.3918V22.7172C8.80791 23.9188 7.92931 24.88 6.84988 24.88H3.53628C2.45685 24.88 1.57825 23.9054 1.57825 22.7172V17.9512" stroke="#6E6E6E" stroke-width="1.5" stroke-miterlimit="10" stroke-linecap="round"/>
</svg>
