<svg width="25" height="27" viewBox="0 0 25 27" fill="none" xmlns="http://www.w3.org/2000/svg">
<path d="M14.8385 17.026H12.5285H9.3605C8.63148 17.026 8.0405 17.617 8.0405 18.346V24.286C8.0405 25.015 7.44951 25.606 6.7205 25.606H2.1665C1.43748 25.606 0.846497 25.015 0.846497 24.286V14.8499C0.846497 14.5496 0.948861 14.2583 1.1367 14.0241L11.0544 1.65608C11.5771 1.00429 12.5662 0.995884 13.0999 1.63871L23.3781 14.0193C23.5748 14.2563 23.6825 14.5545 23.6825 14.8625V24.286C23.6825 25.015 23.0915 25.606 22.3625 25.606H17.4785C16.7495 25.606 16.1585 25.015 16.1585 24.286V18.346C16.1585 17.617 15.5675 17.026 14.8385 17.026Z" fill="#25258C"/>
<path d="M11.3731 1.91986C11.8958 1.25238 12.9034 1.24397 13.4376 1.90228L16.877 6.14349C15.0159 12.4978 9.26196 17.1287 2.45026 17.1288C1.72625 17.1288 1.01418 17.0747 0.317444 16.9736V16.4921C0.317545 16.1973 0.415978 15.9108 0.597717 15.6786L11.3731 1.91986Z" fill="#3737B1"/>
<path d="M0.775879 18.6245V15.2202C0.775879 14.6728 0.964152 14.1522 1.30304 13.7517L10.7669 2.47078C11.5451 1.54962 12.8504 1.54962 13.6286 2.47078L19.2768 9.19925" stroke="#FF4200" stroke-width="1.5" stroke-miterlimit="10" stroke-linecap="round"/>
<path d="M18.8875 8.71875L23.0923 13.7384C23.4311 14.1389 23.6194 14.6596 23.6194 15.2069V23.3772C23.6194 24.5787 22.7408 25.5399 21.6614 25.5399H18.3352C17.2558 25.5399 16.3772 24.5654 16.3772 23.3772V19.0518C16.3772 17.8503 15.4986 16.889 14.4192 16.889H9.96338" stroke="#FF4200" stroke-width="1.5" stroke-miterlimit="10" stroke-linecap="round"/>
<path d="M9.96358 16.889C8.88415 16.889 8.00555 17.8635 8.00555 19.0517V23.3772C8.00555 24.5787 7.12694 25.5399 6.04751 25.5399H2.73391C1.65448 25.5399 0.775879 24.5653 0.775879 23.3772V18.6111" stroke="#00A9EA" stroke-width="1.5" stroke-miterlimit="10" stroke-linecap="round"/>
<circle cx="12.33" cy="10.7561" r="2.244" fill="white"/>
</svg>
