<svg width="36" height="36" viewBox="0 0 36 36" fill="none" xmlns="http://www.w3.org/2000/svg">
<rect x="1.05981" width="33.9141" height="33.9141" rx="16.9571" fill="#000000"/>
<path d="M19.0919 28.6152L18.6936 29.0677C18.0187 29.8402 16.9013 29.8402 16.2264 29.0677L7.04369 18.6499C4.8863 16.1889 4.69822 12.4478 6.62328 9.76606C6.6454 9.73295 6.66753 9.71088 6.68966 9.67777C9.2564 6.20149 14.9984 6.86364 16.8349 10.7151L17.4656 12.0505L18.1072 10.7151C19.9438 6.86364 25.6858 6.21253 28.2525 9.67777C28.2746 9.71088 28.2968 9.73295 28.3189 9.76606C30.244 12.4478 30.0559 16.1889 27.8874 18.6499M27.8764 18.6499L22.5991 24.6423C21.8025 25.5473 20.2868 25.5362 19.5124 24.6092L15.2418 19.5548" stroke="#FFFFFF" stroke-width="2.11963" stroke-miterlimit="10" stroke-linecap="round" stroke-linejoin="round"/>
</svg>
