<svg width="26" height="25" viewBox="0 0 26 25" fill="none" xmlns="http://www.w3.org/2000/svg">
<path d="M22.8891 15.9243C23.9656 16.8972 24.5783 18.3028 24.5783 19.7767V21.6781C24.5783 22.8133 23.6837 23.7336 22.58 23.7336H2.9966C1.89298 23.7336 0.998291 22.8133 0.998291 21.6781V19.7767C0.998291 18.3028 1.61102 16.8972 2.68751 15.9243C4.51016 14.2771 7.43131 12.9233 12.3853 12.9233" stroke="#6E6E6E" stroke-width="1.5" stroke-miterlimit="10" stroke-linecap="round"/>
<path d="M22.8889 15.9243C23.9654 16.8972 24.5781 18.3028 24.5781 19.7767V21.6781C24.5781 22.8133 23.6835 23.7336 22.5798 23.7336H10.7249" stroke="#2C2C2C" stroke-width="1.5" stroke-miterlimit="10" stroke-linecap="round"/>
<path d="M12.5244 0.750127C9.17278 0.750127 6.43933 3.50502 6.43933 6.92368C6.43933 10.3423 9.17278 13.0972 12.5244 13.0972C15.8759 13.0972 18.6094 10.3423 18.6094 6.92368C18.6094 3.50502 15.8759 0.750127 12.5244 0.750127Z" stroke="#9B9B9B" stroke-width="1.5" stroke-miterlimit="10" stroke-linecap="round" stroke-linejoin="round"/>
</svg>
