<svg width="34" height="34" viewBox="0 0 34 34" fill="none" xmlns="http://www.w3.org/2000/svg">
<path d="M25.5319 24.8508H12.3681C11.5244 24.8508 10.8012 24.2482 10.6271 23.4313L8.65858 13.5886C8.44432 12.4905 9.2746 11.4727 10.3995 11.4727H27.5005C28.6253 11.4727 29.4556 12.4905 29.2414 13.5886L27.2728 23.4313C27.1121 24.2482 26.389 24.8508 25.5319 24.8508Z" stroke="#FF4200" stroke-width="2" stroke-miterlimit="10" stroke-linecap="round" stroke-linejoin="round"/>
<path d="M14.9392 28.8683C15.6788 28.8683 16.2783 28.2687 16.2783 27.5292C16.2783 26.7896 15.6788 26.19 14.9392 26.19C14.1996 26.19 13.6001 26.7896 13.6001 27.5292C13.6001 28.2687 14.1996 28.8683 14.9392 28.8683Z" stroke="#00A9EA" stroke-width="3" stroke-miterlimit="10" stroke-linecap="round" stroke-linejoin="round"/>
<path d="M8.97987 20.3379L6.94435 10.1604C6.77026 9.28992 6.00695 8.66052 5.10972 8.66052H2.88672" stroke="#FF4200" stroke-width="2" stroke-miterlimit="10" stroke-linecap="round" stroke-linejoin="round"/>
<path d="M20.2878 24.8508H25.5317C26.3889 24.8508 27.112 24.2482 27.2727 23.4313L29.2413 13.5886C29.4555 12.4905 28.6252 11.4727 27.5003 11.4727" stroke="#25258C" stroke-width="2" stroke-miterlimit="10" stroke-linecap="round" stroke-linejoin="round"/>
<path d="M24.3132 28.8683C25.0529 28.8683 25.6523 28.2687 25.6523 27.5292C25.6523 26.7896 25.0529 26.19 24.3132 26.19C23.5736 26.19 22.9741 26.7896 22.9741 27.5292C22.9741 28.2687 23.5736 28.8683 24.3132 28.8683Z" stroke="#00A9EA" stroke-width="3" stroke-miterlimit="10" stroke-linecap="round" stroke-linejoin="round"/>
</svg>
