<svg width="26" height="25" viewBox="0 0 26 25" fill="none" xmlns="http://www.w3.org/2000/svg">
<path d="M22.6411 24.002H2.83386C2.36226 23.8338 2.09112 23.8001 1.71384 22.9928C1.24224 21.9837 0.85355 19.398 2.36226 16.9384C3.60022 14.9201 7.37301 13.9111 8.78781 13.4065C10.6742 12.9021 13.466 12.2638 16.0387 12.902C20.1062 13.911 23.5843 16.4338 24.0559 17.4429C24.5275 18.452 24.9991 18.9565 24.9991 21.4793C24.9991 23.4974 23.4271 24.002 22.6411 24.002Z" fill="#25258C"/>
<path d="M10.7247 22.8015H1.70067C1.48581 22.6772 1.36229 22.6523 1.1904 22.0558C0.975543 21.3101 0.798457 19.3993 1.48581 17.5817C2.04981 16.0902 3.76867 15.3446 4.41324 14.9717C5.27267 14.5989 6.54456 14.1273 7.71666 14.5989C9.56981 15.3446 11.1544 17.2088 11.3692 17.9545C11.5841 18.7002 11.7989 19.0731 11.7989 20.9373C11.7989 22.4287 11.0828 22.8015 10.7247 22.8015Z" fill="#3737B1"/>
<path d="M22.8891 15.9243C23.9656 16.8972 24.5783 18.3028 24.5783 19.7767V21.6781C24.5783 22.8133 23.6837 23.7336 22.58 23.7336H2.9966C1.89298 23.7336 0.998291 22.8133 0.998291 21.6781V19.7767C0.998291 18.3028 1.61102 16.8972 2.68751 15.9243C4.51016 14.2771 7.8343 12.6337 12.7883 12.6337" stroke="#FF4200" stroke-width="1.5" stroke-miterlimit="10" stroke-linecap="round"/>
<path d="M22.8889 15.9243C23.9654 16.8972 24.5781 18.3028 24.5781 19.7767V21.6781C24.5781 22.8133 23.6835 23.7336 22.5798 23.7336H10.7249" stroke="#00A9EA" stroke-width="1.5" stroke-miterlimit="10" stroke-linecap="round"/>
<path d="M5.68933 6.92368C5.68933 3.09993 8.7495 0.000126839 12.5244 0.000126839C16.2992 0.000126839 19.3594 3.09993 19.3594 6.92368C19.3594 10.7474 16.2992 13.8472 12.5244 13.8472C8.7495 13.8472 5.68933 10.7474 5.68933 6.92368Z" fill="#25258C"/>
<path d="M6.90808 5.53885C6.90808 2.98986 8.97448 0.923467 11.5235 0.923467C14.0725 0.923467 16.1389 2.98986 16.1389 5.53885C16.1389 8.08784 14.0725 10.1542 11.5235 10.1542C8.97448 10.1542 6.90808 8.08784 6.90808 5.53885Z" fill="#3737B1"/>
<path d="M7.82031 6.90387C7.82031 4.25666 9.93889 2.11064 12.5523 2.11064" stroke="white" stroke-width="1.5" stroke-miterlimit="10" stroke-linecap="round" stroke-linejoin="round"/>
<path d="M12.5244 0.750127C9.17278 0.750127 6.43933 3.50502 6.43933 6.92368C6.43933 10.3423 9.17278 13.0972 12.5244 13.0972C15.8759 13.0972 18.6094 10.3423 18.6094 6.92368C18.6094 3.50502 15.8759 0.750127 12.5244 0.750127Z" stroke="#FF4200" stroke-width="1.5" stroke-miterlimit="10" stroke-linecap="round" stroke-linejoin="round"/>
</svg>
