<svg width="34" height="34" viewBox="0 0 34 34" fill="none" xmlns="http://www.w3.org/2000/svg">
<rect width="34" height="34" rx="17" fill="#ECEEF1"/>
<path d="M21.9 10.5L12.5 17.2L21.5 23.5" stroke="#B3B3B3" stroke-width="2.12" stroke-miterlimit="10" stroke-linecap="round" stroke-linejoin="round"/>
<path d="M24.2 10.5C25.5255 10.5 26.6 9.42549 26.6 8.1C26.6 6.77452 25.5255 5.7 24.2 5.7C22.8746 5.7 21.8 6.77452 21.8 8.1C21.8 9.42549 22.8746 10.5 24.2 10.5Z" stroke="#B3B3B3" stroke-width="2.12" stroke-miterlimit="10" stroke-linecap="round" stroke-linejoin="round"/>
<path d="M23.8 28.3C25.1255 28.3 26.2 27.2255 26.2 25.9C26.2 24.5745 25.1255 23.5 23.8 23.5C22.4745 23.5 21.4 24.5745 21.4 25.9C21.4 27.2255 22.4745 28.3 23.8 28.3Z" stroke="#B3B3B3" stroke-width="2.12" stroke-miterlimit="10" stroke-linecap="round" stroke-linejoin="round"/>
<path d="M9.80002 19.8C11.1255 19.8 12.2 18.7255 12.2 17.4C12.2 16.0745 11.1255 15 9.80002 15C8.47454 15 7.40002 16.0745 7.40002 17.4C7.40002 18.7255 8.47454 19.8 9.80002 19.8Z" stroke="#B3B3B3" stroke-width="2.12" stroke-miterlimit="10" stroke-linecap="round" stroke-linejoin="round"/>
</svg>
