<svg width="26" height="24" viewBox="0 0 26 24" fill="none" xmlns="http://www.w3.org/2000/svg">
<path d="M14.5809 21.6649L14.202 22.096C13.5358 22.8406 12.4515 22.8406 11.7983 22.096L2.8367 12.1154C0.720403 9.75091 0.537513 6.17149 2.41867 3.59796C2.4448 3.57183 2.45785 3.54571 2.48398 3.51958C4.99219 0.188362 10.5965 0.815415 12.3862 4.51241L12.9871 5.79264" stroke="#2C2C2C" stroke-width="1.5" stroke-miterlimit="10" stroke-linecap="round"/>
<path d="M23.1504 12.1155L17.9903 17.8635C17.2195 18.7257 15.7303 18.7127 14.9726 17.8374L10.8053 12.9908" stroke="#9B9B9B" stroke-width="1.5" stroke-miterlimit="10" stroke-linecap="round"/>
<path d="M12.9868 5.79264L13.6138 4.51241C15.4035 0.815415 21.0078 0.188362 23.516 3.51958C23.5421 3.54571 23.5552 3.57183 23.5813 3.59796C25.4625 6.17149 25.2796 9.75091 23.1633 12.1154" stroke="#6E6E6E" stroke-width="1.5" stroke-miterlimit="10" stroke-linecap="round"/>
</svg>
