<svg width="26" height="24" viewBox="0 0 26 24" fill="none" xmlns="http://www.w3.org/2000/svg">
<path d="M23.5939 12.62L14.982 22.2105C14.0844 23.2249 12.452 22.5451 12.078 22.2105C10.362 20.4285 6.45482 16.3497 4.55402 14.2905C2.17802 11.7165 0.462017 9.01045 1.58402 5.44645C2.70602 1.88245 5.87402 1.02445 8.31602 1.55245C9.54797 1.81882 10.8272 2.85157 11.8027 3.85958C12.4745 4.55368 13.6994 4.49159 14.2886 3.72615C15.1234 2.64164 16.1934 1.55444 17.16 1.35445C19.074 0.958451 21.912 1.68445 23.958 4.52245C25.5408 6.7179 24.4534 10.9829 23.7632 12.376C23.719 12.4653 23.6604 12.5459 23.5939 12.62Z" fill="#25258C"/>
<path d="M1.58276 5.44672C2.70471 1.8829 5.87226 1.02435 8.31421 1.55219C9.54617 1.81855 10.826 2.8518 11.8015 3.8598C12.4733 4.5536 13.6977 4.49129 14.2869 3.72601C14.8857 2.94809 15.6061 2.16948 16.322 1.71722C16.7369 3.0404 16.9607 4.44861 16.9607 5.90863C16.9605 11.596 13.5667 16.4901 8.69409 18.6782C7.1684 17.0783 5.57161 15.3945 4.55249 14.2905C2.17654 11.7165 0.46091 9.0106 1.58276 5.44672Z" fill="#3737B1"/>
<path d="M14.5809 21.6077L14.202 22.0388C13.5358 22.7834 12.4515 22.7834 11.7983 22.0388L2.8367 12.0582C0.720403 9.69372 0.537513 6.1143 2.41867 3.54077C2.4448 3.51464 2.45785 3.48852 2.48398 3.46239C4.99219 0.131172 10.5965 0.758225 12.3862 4.45522L12.9871 5.73545" stroke="#FF4200" stroke-width="1.5" stroke-miterlimit="10" stroke-linecap="round"/>
<path d="M12.9868 5.73545L13.6138 4.45522C15.4035 0.758225 21.0078 0.131172 23.516 3.46239C23.5421 3.48852 23.5552 3.51464 23.5813 3.54077C25.4625 6.1143 25.2796 9.69372 23.1633 12.0582" stroke="#FF4200" stroke-width="1.5" stroke-miterlimit="10" stroke-linecap="round"/>
<path d="M23.1504 12.0582L17.9903 17.8061C17.2195 18.6683 15.7303 18.6553 14.9726 17.78L10.8053 12.9334" stroke="#00A9EA" stroke-width="1.5" stroke-miterlimit="10" stroke-linecap="round"/>
<path d="M22.9012 7.69063C22.9012 5.32133 20.9805 3.40063 18.6112 3.40063C17.5544 3.40063 16.5869 3.78275 15.8392 4.41636" stroke="white" stroke-width="1.5" stroke-linecap="round"/>
</svg>
